<?xml version="1.0" standalone="no"?>
<!DOCTYPE svg PUBLIC "-//W3C//DTD SVG 20010904//EN"
 "http://www.w3.org/TR/2001/REC-SVG-20010904/DTD/svg10.dtd">
<svg version="1.0" xmlns="http://www.w3.org/2000/svg"
 width="600.000000pt" height="600.000000pt" viewBox="0 0 600.000000 600.000000"
 preserveAspectRatio="xMidYMid meet">

<g transform="translate(0.000000,600.000000) scale(0.100000,-0.100000)"
fill="#000000" stroke="none">
<path d="M2825 4199 c-465 -72 -839 -391 -978 -834 -14 -44 -31 -107 -39 -140
-17 -82 -17 -361 1 -450 97 -490 476 -869 966 -966 92 -18 358 -18 450 0 439
87 790 398 929 823 75 230 73 519 -5 750 -137 408 -477 711 -902 804 -85 19
-336 27 -422 13z m100 -352 c12 -18 15 -66 15 -269 l0 -248 -135 0 -135 0 0
100 0 101 -22 -12 c-13 -7 -55 -44 -94 -84 -54 -54 -82 -93 -112 -156 -22 -46
-43 -96 -46 -111 l-6 -28 230 0 c245 0 287 -7 309 -48 7 -14 11 -167 11 -469
0 -489 1 -480 -57 -500 -62 -22 -249 42 -378 129 -86 57 -169 136 -232 221
-45 61 -103 167 -103 187 0 6 52 10 145 10 l145 0 22 -27 c39 -48 143 -150
166 -162 l22 -12 0 196 0 195 -275 0 c-253 0 -276 1 -283 18 -15 37 -5 265 16
344 73 272 271 501 526 607 147 61 237 67 271 18z m338 12 l67 -20 1 -502 1
-502 64 134 c35 74 66 132 67 130 2 -2 37 -41 79 -85 81 -86 88 -87 88 -16 -1
103 -42 237 -107 352 -2 3 38 52 88 109 l92 102 35 -48 c50 -69 107 -194 133
-293 33 -121 33 -319 0 -440 -26 -99 -83 -224 -134 -293 l-35 -49 -88 101
c-49 56 -91 101 -94 101 -3 0 -43 -98 -90 -218 -48 -123 -96 -229 -110 -245
-32 -36 -158 -70 -203 -55 -60 21 -57 -24 -57 876 0 570 3 830 11 843 14 26
63 47 97 41 15 -2 57 -13 95 -23z"/>
</g>
</svg>
